<svg width="18" height="18" viewBox="0 0 18 18" fill="none" xmlns="http://www.w3.org/2000/svg">
<path d="M10.852 15.0229L5.22696 9.39792C5.17466 9.34568 5.13317 9.28364 5.10487 9.21535C5.07656 9.14707 5.06199 9.07387 5.06199 8.99995C5.06199 8.92603 5.07656 8.85283 5.10487 8.78454C5.13317 8.71626 5.17466 8.65422 5.22696 8.60198L10.852 2.97698C10.9575 2.87143 11.1007 2.81213 11.2499 2.81213C11.3992 2.81213 11.5424 2.87143 11.6479 2.97698C11.7534 3.08253 11.8127 3.22568 11.8127 3.37495C11.8127 3.52421 11.7534 3.66737 11.6479 3.77292L6.42017 8.99995L11.6479 14.227C11.7002 14.2792 11.7416 14.3413 11.7699 14.4096C11.7982 14.4779 11.8127 14.551 11.8127 14.6249C11.8127 14.6989 11.7982 14.772 11.7699 14.8403C11.7416 14.9086 11.7002 14.9707 11.6479 15.0229C11.5956 15.0752 11.5336 15.1166 11.4653 15.1449C11.397 15.1732 11.3238 15.1878 11.2499 15.1878C11.176 15.1878 11.1028 15.1732 11.0346 15.1449C10.9663 15.1166 10.9042 15.0752 10.852 15.0229Z" fill="#242424" stroke="#242424"/>
</svg>
